<svg xmlns="http://www.w3.org/2000/svg" width="500" height="500" viewBox="0 0 50 50"><path d="M9 4C6.25 4 4 6.25 4 9v32c0 2.75 2.25 5 5 5h32c2.75 0 5-2.25 5-5V9c0-2.75-2.25-5-5-5H9zm0 2h6.58C12 9.72 10 14.52 10 19.5c0 5.16 2.1 10.1 5.9 13.84.13.2.23 1.24-.23 2.43-.3.75-.87 1.73-2 2.1-.42.14-.7.56-.67 1 .03.46.36.84.8.93 2.87.57 4.73-.3 6.23-.97 1.35-.62 2.24-1.04 3.6-.48 2.8 1.1 5.8 1.65 8.87 1.65 4.1 0 8.03-1 11.5-2.9V41c0 1.67-1.33 3-3 3H9c-1.67 0-3-1.33-3-3V9c0-1.67 1.33-3 3-3zm24 9c.55 0 1 .45 1 1v9c0 .55-.45 1-1 1s-1-.45-1-1v-9c0-.55.45-1 1-1zm-15 1h5c.36 0 .7.2.88.52.17.3.16.7-.03 1L19.8 24H23c.55 0 1 .45 1 1s-.45 1-1 1h-5c-.36 0-.7-.2-.88-.52-.17-.3-.16-.7.03-1L21.2 18H18c-.55 0-1-.45-1-1s.45-1 1-1zm9.5 3c.6 0 1.18.17 1.7.45.17-.26.45-.45.8-.45.55 0 1 .45 1 1v5c0 .55-.45 1-1 1-.35 0-.63-.2-.8-.45-.52.28-1.1.45-1.7.45-1.93 0-3.5-1.57-3.5-3.5s1.57-3.5 3.5-3.5zm11 0c1.93 0 3.5 1.57 3.5 3.5S40.43 26 38.5 26 35 24.43 35 22.5s1.57-3.5 3.5-3.5zm-11 2c-.1 0-.2 0-.3.03-.2.04-.38.12-.54.23-.16.1-.3.24-.4.4-.1.16-.2.34-.23.54-.02.1-.03.2-.03.3 0 .1 0 .2.03.3.02.1.05.2.1.28.03.1.07.18.13.26.05.08.1.15.18.22.07.07.14.13.22.18.16.1.34.2.54.23.1.02.2.03.3.03.1 0 .2 0 .3-.03.7-.14 1.2-.74 1.2-1.47 0-.83-.67-1.5-1.5-1.5zm11 0c-.1 0-.2 0-.3.03-.1.02-.2.05-.28.1-.1.03-.18.07-.26.13-.08.05-.15.1-.22.18-.14.14-.25.3-.32.48-.04.1-.07.18-.1.28 0 .1-.02.2-.02.3 0 .1 0 .2.03.3.02.1.05.2.1.28.03.1.07.18.13.26.05.08.1.15.18.22.07.07.14.13.22.18.08.06.17.1.26.14.1.04.18.07.28.1.1 0 .2.02.3.02.1 0 .2 0 .3-.03.7-.14 1.2-.74 1.2-1.47 0-.83-.67-1.5-1.5-1.5z"/></svg>